<svg width="38" height="39" viewBox="0 0 38 39" fill="none" xmlns="http://www.w3.org/2000/svg">
<path d="M22.398 38.5523H15.4451C14.5476 38.5523 13.771 37.9277 13.5789 37.051L12.8015 33.4523C11.7644 32.9979 10.781 32.4297 9.86947 31.758L6.36056 32.8754C5.50482 33.1483 4.57456 32.7882 4.1257 32.0101L0.641625 25.9913C0.197688 25.213 0.350633 24.2311 1.01028 23.6247L3.73222 21.1415C3.60843 20.0166 3.60843 18.8816 3.73222 17.7568L1.01028 15.2793C0.349662 14.6726 0.196656 13.6896 0.641625 12.9108L4.11806 6.88811C4.56692 6.11011 5.49718 5.74993 6.35292 6.02282L9.86183 7.14025C10.328 6.79481 10.8133 6.47595 11.3154 6.18518C11.7974 5.91336 12.2935 5.66724 12.8015 5.44787L13.5809 1.853C13.772 0.976195 14.5477 0.350676 15.4451 0.349731H22.398C23.2954 0.350676 24.0712 0.976195 24.2623 1.853L25.0493 5.44978C25.5856 5.68571 26.1079 5.9523 26.6137 6.24822C27.0853 6.52101 27.5413 6.82009 27.9794 7.14407L31.4902 6.02664C32.3454 5.75477 33.2745 6.11481 33.7232 6.89193L37.1996 12.9146C37.6436 13.6929 37.4906 14.6748 36.831 15.2812L34.109 17.7644C34.2328 18.8892 34.2328 20.0243 34.109 21.1491L36.831 23.6323C37.4906 24.2388 37.6436 25.2206 37.1996 25.999L33.7232 32.0216C33.2745 32.7987 32.3454 33.1588 31.4902 32.8869L27.9794 31.7695C27.5352 32.0967 27.0735 32.3996 26.5965 32.6768C26.0957 32.9669 25.5792 33.229 25.0493 33.4618L24.2623 37.051C24.0704 37.927 23.2948 38.5516 22.398 38.5523ZM10.5552 27.529L12.1215 28.6751C12.4746 28.9351 12.8426 29.1743 13.2237 29.3914C13.5822 29.599 13.9514 29.7877 14.3296 29.9568L16.1118 30.738L16.9847 34.7321H20.8623L21.7352 30.7361L23.5174 29.9548C24.2954 29.6118 25.0338 29.1852 25.7197 28.6827L27.288 27.5366L31.1865 28.7782L33.1253 25.4202L30.1016 22.6639L30.3155 20.7308C30.4095 19.8853 30.4095 19.032 30.3155 18.1865L30.1016 16.2535L33.1272 13.4914L31.1865 10.1315L27.288 11.3731L25.7197 10.227C25.0336 9.72219 24.2952 9.29249 23.5174 8.94532L21.7352 8.16408L20.8623 4.16999H16.9847L16.108 8.16599L14.3296 8.94532C13.951 9.11158 13.5818 9.29842 13.2237 9.50499C12.8449 9.72146 12.4789 9.95934 12.1272 10.2175L10.559 11.3635L6.66236 10.122L4.71976 13.4914L7.74349 16.2439L7.52956 18.1789C7.43558 19.0244 7.43558 19.8777 7.52956 20.7232L7.74349 22.6562L4.71976 25.4126L6.65854 28.7706L10.5552 27.529ZM18.9139 27.0916C14.6942 27.0916 11.2734 23.6708 11.2734 19.451C11.2734 15.2313 14.6942 11.8105 18.9139 11.8105C23.1337 11.8105 26.5545 15.2313 26.5545 19.451C26.5492 23.6686 23.1315 27.0863 18.9139 27.0916ZM18.9139 15.6308C16.8269 15.6329 15.1278 17.3095 15.0979 19.3963C15.068 21.4831 16.7184 23.2077 18.8045 23.2696C20.8906 23.3315 22.6403 21.7079 22.7342 19.623V20.387V19.451C22.7342 17.3412 21.0238 15.6308 18.9139 15.6308Z" fill="#F2F2F2"/>
</svg>
