<svg width="30" height="30" viewBox="0 0 30 30" fill="none" xmlns="http://www.w3.org/2000/svg">
<path d="M20.6667 0.833344C22.2315 0.833344 23.5 2.10187 23.5 3.66668L3.66668 3.66667L3.66668 19.5C2.10187 19.5 0.833344 18.2315 0.833344 16.6667V3.66667C0.833344 2.10187 2.10187 0.833344 3.66668 0.833344H20.6667Z" fill="#F2F2F2"/>
<path d="M17.8333 29.1667L14.0556 25.1667H9.33334C7.76854 25.1667 6.50001 23.8981 6.50001 22.3333V9.33334C6.50001 7.76853 7.76854 6.50001 9.33334 6.50001H26.3333C27.8981 6.50001 29.1667 7.76854 29.1667 9.33334V22.3333C29.1667 23.8982 27.8981 25.1667 26.3333 25.1667H21.6111L17.8333 29.1667ZM20.3898 22.3333L26.3333 22.3333V9.33334L9.33334 9.33334V22.3333H15.2769L17.8333 25.0402L20.3898 22.3333Z" fill="#F2F2F2"/>
</svg>
