<svg width="40" height="34" viewBox="0 0 40 34" fill="none" xmlns="http://www.w3.org/2000/svg">
<path d="M31.3824 33.2027H2.73044C2.22348 33.2078 1.73594 33.0078 1.3787 32.648C1.02146 32.2883 0.824888 31.7994 0.833683 31.2924H0.820312V4.55061C0.820312 2.44074 2.5307 0.730347 4.64057 0.730347H16.1014C16.528 0.730754 16.9422 0.873984 17.278 1.1372L21.6407 4.55061H31.3824C33.4923 4.55061 35.2027 6.261 35.2027 8.37087V16.0114H37.1128C37.7549 16.0115 38.3539 16.3341 38.7073 16.8702C39.0607 17.4062 39.1212 18.084 38.8682 18.6741L33.1378 32.045C32.8368 32.7472 32.1464 33.2027 31.3824 33.2027ZM9.72152 19.8317L5.62811 29.3823H30.1236L34.217 19.8317H9.72152ZM4.64057 8.37087V21.9901L6.70543 17.1689C7.00643 16.4668 7.69687 16.0115 8.46084 16.0114H31.3824V8.37087H4.64057Z" fill="white"/>
</svg>
