<svg width="28" height="34" viewBox="0 0 28 34" fill="none" xmlns="http://www.w3.org/2000/svg">
<path d="M26.25 33.5H1.75C0.783502 33.5 0 32.7165 0 31.75V14.9745C0 14.5104 0.184539 14.0654 0.51275 13.7373L12.7628 1.48725C13.091 1.15864 13.5364 0.973999 14.0009 0.973999C14.4653 0.973999 14.9108 1.15864 15.239 1.48725L27.489 13.7373C27.8176 14.065 28.0015 14.5104 28 14.9745V31.75C28 32.7165 27.2165 33.5 26.25 33.5ZM10.5 21.25H17.5V30H24.5V15.699L14 5.199L3.5 15.699V30H10.5V21.25Z" fill="#3B97CB"/>
</svg>
